<mxfile host="app.diagrams.net" modified="2021-04-16T15:55:04.852Z" agent="5.0 (X11; Linux x86_64) AppleWebKit/537.36 (KHTML, like Gecko) Chrome/89.0.4389.114 Safari/537.36" etag="GorzwOs_PB-PCtoUuPCG" version="14.6.1" type="github">
  <diagram id="7PAAJETbVV3YSlwWJHKw" name="Page-1">
    <mxGraphModel dx="971" dy="546" grid="1" gridSize="10" guides="1" tooltips="1" connect="1" arrows="1" fold="1" page="1" pageScale="1" pageWidth="827" pageHeight="1169" math="0" shadow="0">
      <root>
        <mxCell id="0" />
        <mxCell id="1" parent="0" />
        <mxCell id="rYNnt27knb08ocC6amlj-32" value="" style="rounded=0;whiteSpace=wrap;html=1;" vertex="1" parent="1">
          <mxGeometry x="210" y="10" width="400" height="710" as="geometry" />
        </mxCell>
        <mxCell id="rYNnt27knb08ocC6amlj-51" style="rounded=0;orthogonalLoop=1;jettySize=auto;html=1;exitX=1;exitY=0.3333333333333333;exitDx=0;exitDy=0;exitPerimeter=0;entryX=0;entryY=0.5;entryDx=0;entryDy=0;" edge="1" parent="1" source="rYNnt27knb08ocC6amlj-33" target="rYNnt27knb08ocC6amlj-36">
          <mxGeometry relative="1" as="geometry" />
        </mxCell>
        <mxCell id="rYNnt27knb08ocC6amlj-52" style="edgeStyle=none;rounded=0;orthogonalLoop=1;jettySize=auto;html=1;exitX=1;exitY=0.3333333333333333;exitDx=0;exitDy=0;exitPerimeter=0;entryX=0;entryY=0.5;entryDx=0;entryDy=0;" edge="1" parent="1" source="rYNnt27knb08ocC6amlj-33" target="rYNnt27knb08ocC6amlj-38">
          <mxGeometry relative="1" as="geometry" />
        </mxCell>
        <mxCell id="rYNnt27knb08ocC6amlj-53" style="edgeStyle=none;rounded=0;orthogonalLoop=1;jettySize=auto;html=1;exitX=1;exitY=0.3333333333333333;exitDx=0;exitDy=0;exitPerimeter=0;entryX=0;entryY=0.5;entryDx=0;entryDy=0;" edge="1" parent="1" source="rYNnt27knb08ocC6amlj-33" target="rYNnt27knb08ocC6amlj-40">
          <mxGeometry relative="1" as="geometry" />
        </mxCell>
        <mxCell id="rYNnt27knb08ocC6amlj-54" style="edgeStyle=none;rounded=0;orthogonalLoop=1;jettySize=auto;html=1;exitX=1;exitY=0.3333333333333333;exitDx=0;exitDy=0;exitPerimeter=0;entryX=0;entryY=0.5;entryDx=0;entryDy=0;" edge="1" parent="1" source="rYNnt27knb08ocC6amlj-33" target="rYNnt27knb08ocC6amlj-41">
          <mxGeometry relative="1" as="geometry" />
        </mxCell>
        <mxCell id="rYNnt27knb08ocC6amlj-55" style="edgeStyle=none;rounded=0;orthogonalLoop=1;jettySize=auto;html=1;exitX=1;exitY=0.3333333333333333;exitDx=0;exitDy=0;exitPerimeter=0;entryX=0;entryY=0.5;entryDx=0;entryDy=0;" edge="1" parent="1" source="rYNnt27knb08ocC6amlj-33" target="rYNnt27knb08ocC6amlj-47">
          <mxGeometry relative="1" as="geometry" />
        </mxCell>
        <mxCell id="rYNnt27knb08ocC6amlj-56" style="edgeStyle=none;rounded=0;orthogonalLoop=1;jettySize=auto;html=1;exitX=1;exitY=0.3333333333333333;exitDx=0;exitDy=0;exitPerimeter=0;entryX=0;entryY=0.5;entryDx=0;entryDy=0;" edge="1" parent="1" source="rYNnt27knb08ocC6amlj-33" target="rYNnt27knb08ocC6amlj-48">
          <mxGeometry relative="1" as="geometry" />
        </mxCell>
        <mxCell id="rYNnt27knb08ocC6amlj-57" style="edgeStyle=none;rounded=0;orthogonalLoop=1;jettySize=auto;html=1;exitX=1;exitY=0.3333333333333333;exitDx=0;exitDy=0;exitPerimeter=0;entryX=0;entryY=0.5;entryDx=0;entryDy=0;" edge="1" parent="1" source="rYNnt27knb08ocC6amlj-33" target="rYNnt27knb08ocC6amlj-49">
          <mxGeometry relative="1" as="geometry" />
        </mxCell>
        <mxCell id="rYNnt27knb08ocC6amlj-58" style="edgeStyle=none;rounded=0;orthogonalLoop=1;jettySize=auto;html=1;exitX=1;exitY=0.3333333333333333;exitDx=0;exitDy=0;exitPerimeter=0;entryX=0;entryY=0.5;entryDx=0;entryDy=0;" edge="1" parent="1" source="rYNnt27knb08ocC6amlj-33" target="rYNnt27knb08ocC6amlj-50">
          <mxGeometry relative="1" as="geometry" />
        </mxCell>
        <mxCell id="rYNnt27knb08ocC6amlj-60" style="edgeStyle=none;rounded=0;orthogonalLoop=1;jettySize=auto;html=1;exitX=1;exitY=0.3333333333333333;exitDx=0;exitDy=0;exitPerimeter=0;entryX=0;entryY=0.5;entryDx=0;entryDy=0;" edge="1" parent="1" source="rYNnt27knb08ocC6amlj-33" target="rYNnt27knb08ocC6amlj-59">
          <mxGeometry relative="1" as="geometry" />
        </mxCell>
        <mxCell id="rYNnt27knb08ocC6amlj-324" style="rounded=0;orthogonalLoop=1;jettySize=auto;html=1;exitX=1;exitY=0.3333333333333333;exitDx=0;exitDy=0;exitPerimeter=0;entryX=0;entryY=0.5;entryDx=0;entryDy=0;" edge="1" parent="1" source="rYNnt27knb08ocC6amlj-33" target="rYNnt27knb08ocC6amlj-323">
          <mxGeometry relative="1" as="geometry" />
        </mxCell>
        <mxCell id="rYNnt27knb08ocC6amlj-338" style="edgeStyle=none;rounded=0;orthogonalLoop=1;jettySize=auto;html=1;exitX=1;exitY=0.3333333333333333;exitDx=0;exitDy=0;exitPerimeter=0;entryX=0;entryY=0.5;entryDx=0;entryDy=0;" edge="1" parent="1" source="rYNnt27knb08ocC6amlj-33" target="rYNnt27knb08ocC6amlj-337">
          <mxGeometry relative="1" as="geometry" />
        </mxCell>
        <mxCell id="rYNnt27knb08ocC6amlj-33" value="User" style="shape=umlActor;verticalLabelPosition=bottom;verticalAlign=top;html=1;outlineConnect=0;fillColor=none;gradientColor=#ffffff;" vertex="1" parent="1">
          <mxGeometry x="70" y="315" width="30" height="60" as="geometry" />
        </mxCell>
        <mxCell id="rYNnt27knb08ocC6amlj-36" value="login" style="ellipse;whiteSpace=wrap;html=1;fillColor=none;gradientColor=#ffffff;" vertex="1" parent="1">
          <mxGeometry x="240" y="110" width="120" height="50" as="geometry" />
        </mxCell>
        <mxCell id="rYNnt27knb08ocC6amlj-38" value="View Posts" style="ellipse;whiteSpace=wrap;html=1;fillColor=none;gradientColor=#ffffff;" vertex="1" parent="1">
          <mxGeometry x="240" y="170" width="120" height="50" as="geometry" />
        </mxCell>
        <mxCell id="rYNnt27knb08ocC6amlj-40" value="Aquarium Calculator" style="ellipse;whiteSpace=wrap;html=1;fillColor=none;gradientColor=#ffffff;" vertex="1" parent="1">
          <mxGeometry x="240" y="230" width="120" height="50" as="geometry" />
        </mxCell>
        <mxCell id="rYNnt27knb08ocC6amlj-41" value="Check Fish Compatibility" style="ellipse;whiteSpace=wrap;html=1;fillColor=none;gradientColor=#ffffff;" vertex="1" parent="1">
          <mxGeometry x="240" y="290" width="120" height="50" as="geometry" />
        </mxCell>
        <mxCell id="rYNnt27knb08ocC6amlj-47" value="View Forum" style="ellipse;whiteSpace=wrap;html=1;fillColor=none;gradientColor=#ffffff;" vertex="1" parent="1">
          <mxGeometry x="240" y="350" width="120" height="50" as="geometry" />
        </mxCell>
        <mxCell id="rYNnt27knb08ocC6amlj-48" value="Reply to forum" style="ellipse;whiteSpace=wrap;html=1;fillColor=none;gradientColor=#ffffff;" vertex="1" parent="1">
          <mxGeometry x="240" y="410" width="120" height="50" as="geometry" />
        </mxCell>
        <mxCell id="rYNnt27knb08ocC6amlj-49" value="ask to forum" style="ellipse;whiteSpace=wrap;html=1;fillColor=none;gradientColor=#ffffff;" vertex="1" parent="1">
          <mxGeometry x="240" y="470" width="120" height="50" as="geometry" />
        </mxCell>
        <mxCell id="rYNnt27knb08ocC6amlj-50" value="like &amp;amp; dislike the forum" style="ellipse;whiteSpace=wrap;html=1;fillColor=none;gradientColor=#ffffff;" vertex="1" parent="1">
          <mxGeometry x="240" y="530" width="120" height="50" as="geometry" />
        </mxCell>
        <mxCell id="rYNnt27knb08ocC6amlj-59" value="Chat with other users" style="ellipse;whiteSpace=wrap;html=1;fillColor=none;gradientColor=#ffffff;" vertex="1" parent="1">
          <mxGeometry x="240" y="590" width="120" height="50" as="geometry" />
        </mxCell>
        <mxCell id="rYNnt27knb08ocC6amlj-61" value="Verify user" style="ellipse;whiteSpace=wrap;html=1;fillColor=none;gradientColor=#ffffff;" vertex="1" parent="1">
          <mxGeometry x="470" y="170" width="120" height="50" as="geometry" />
        </mxCell>
        <mxCell id="rYNnt27knb08ocC6amlj-309" style="edgeStyle=none;rounded=0;orthogonalLoop=1;jettySize=auto;html=1;exitX=0;exitY=0.5;exitDx=0;exitDy=0;entryX=1;entryY=0.5;entryDx=0;entryDy=0;dashed=1;" edge="1" parent="1" source="rYNnt27knb08ocC6amlj-62" target="rYNnt27knb08ocC6amlj-36">
          <mxGeometry relative="1" as="geometry" />
        </mxCell>
        <mxCell id="rYNnt27knb08ocC6amlj-62" value="Display errors" style="ellipse;whiteSpace=wrap;html=1;fillColor=none;gradientColor=#ffffff;" vertex="1" parent="1">
          <mxGeometry x="470" y="110" width="120" height="50" as="geometry" />
        </mxCell>
        <mxCell id="rYNnt27knb08ocC6amlj-307" value="" style="endArrow=classic;html=1;dashed=1;exitX=0.989;exitY=0.667;exitDx=0;exitDy=0;entryX=0;entryY=0.5;entryDx=0;entryDy=0;exitPerimeter=0;" edge="1" parent="1" source="rYNnt27knb08ocC6amlj-36" target="rYNnt27knb08ocC6amlj-61">
          <mxGeometry relative="1" as="geometry">
            <mxPoint x="350" y="80" as="sourcePoint" />
            <mxPoint x="450" y="80" as="targetPoint" />
          </mxGeometry>
        </mxCell>
        <mxCell id="rYNnt27knb08ocC6amlj-308" value="&amp;lt;&amp;lt;include&amp;gt;&amp;gt;" style="edgeLabel;resizable=0;html=1;align=center;verticalAlign=middle;" connectable="0" vertex="1" parent="rYNnt27knb08ocC6amlj-307">
          <mxGeometry relative="1" as="geometry">
            <mxPoint x="2" as="offset" />
          </mxGeometry>
        </mxCell>
        <mxCell id="rYNnt27knb08ocC6amlj-310" value="&amp;lt;&amp;lt;extend&amp;gt;&amp;gt;" style="edgeLabel;resizable=0;html=1;align=center;verticalAlign=middle;" connectable="0" vertex="1" parent="rYNnt27knb08ocC6amlj-307">
          <mxGeometry relative="1" as="geometry">
            <mxPoint x="-1" y="-34" as="offset" />
          </mxGeometry>
        </mxCell>
        <mxCell id="rYNnt27knb08ocC6amlj-323" value="Register" style="ellipse;whiteSpace=wrap;html=1;fillColor=none;gradientColor=#ffffff;" vertex="1" parent="1">
          <mxGeometry x="240" y="50" width="120" height="50" as="geometry" />
        </mxCell>
        <mxCell id="rYNnt27knb08ocC6amlj-325" value="Validate Email" style="ellipse;whiteSpace=wrap;html=1;fillColor=none;gradientColor=#ffffff;" vertex="1" parent="1">
          <mxGeometry x="470" y="50" width="120" height="50" as="geometry" />
        </mxCell>
        <mxCell id="rYNnt27knb08ocC6amlj-330" value="" style="endArrow=classic;html=1;dashed=1;exitX=0;exitY=0.5;exitDx=0;exitDy=0;entryX=1;entryY=1;entryDx=0;entryDy=0;" edge="1" parent="1" source="rYNnt27knb08ocC6amlj-62" target="rYNnt27knb08ocC6amlj-323">
          <mxGeometry relative="1" as="geometry">
            <mxPoint x="349.99999999999983" y="44.18000000000002" as="sourcePoint" />
            <mxPoint x="461.32" y="105.83" as="targetPoint" />
          </mxGeometry>
        </mxCell>
        <mxCell id="rYNnt27knb08ocC6amlj-331" value="&amp;lt;&amp;lt;extend&amp;gt;&amp;gt;" style="edgeLabel;resizable=0;html=1;align=center;verticalAlign=middle;" connectable="0" vertex="1" parent="rYNnt27knb08ocC6amlj-330">
          <mxGeometry relative="1" as="geometry">
            <mxPoint x="2" as="offset" />
          </mxGeometry>
        </mxCell>
        <mxCell id="rYNnt27knb08ocC6amlj-334" value="" style="endArrow=classic;html=1;dashed=1;exitX=1;exitY=0.5;exitDx=0;exitDy=0;entryX=0;entryY=0.5;entryDx=0;entryDy=0;" edge="1" parent="1" source="rYNnt27knb08ocC6amlj-323" target="rYNnt27knb08ocC6amlj-325">
          <mxGeometry relative="1" as="geometry">
            <mxPoint x="480" y="155" as="sourcePoint" />
            <mxPoint x="352.42640687119297" y="102.67766952966372" as="targetPoint" />
          </mxGeometry>
        </mxCell>
        <mxCell id="rYNnt27knb08ocC6amlj-335" value="&amp;lt;&amp;lt;include&amp;gt;&amp;gt;" style="edgeLabel;resizable=0;html=1;align=center;verticalAlign=middle;" connectable="0" vertex="1" parent="rYNnt27knb08ocC6amlj-334">
          <mxGeometry relative="1" as="geometry">
            <mxPoint x="2" as="offset" />
          </mxGeometry>
        </mxCell>
        <mxCell id="rYNnt27knb08ocC6amlj-337" value="Set up profile&lt;br&gt;image and name&amp;nbsp;" style="ellipse;whiteSpace=wrap;html=1;fillColor=none;gradientColor=#ffffff;" vertex="1" parent="1">
          <mxGeometry x="240" y="650" width="120" height="50" as="geometry" />
        </mxCell>
        <mxCell id="rYNnt27knb08ocC6amlj-339" value="Fish Breeders" style="text;html=1;strokeColor=none;fillColor=none;align=center;verticalAlign=middle;whiteSpace=wrap;rounded=0;" vertex="1" parent="1">
          <mxGeometry x="220" y="20" width="100" height="20" as="geometry" />
        </mxCell>
      </root>
    </mxGraphModel>
  </diagram>
</mxfile>
